<svg width="37" height="23" viewBox="0 0 37 23" fill="none" xmlns="http://www.w3.org/2000/svg">
<rect width="37" height="23" rx="4" fill="#2F70C8"/>
<path d="M27.305 6.44204L26.5891 8.02024H28.0248L27.305 6.44204ZM19.0439 7.42002C19.1788 7.35597 19.2583 7.21666 19.2583 7.04366C19.2583 6.87412 19.1748 6.75134 19.0399 6.69364C18.917 6.62968 18.7279 6.6223 18.5466 6.6223H17.2658V7.50164H18.5294C18.7318 7.50168 18.9009 7.49898 19.0439 7.42002ZM2.63213 6.44204L1.92433 8.02024H3.34421L2.63213 6.44204ZM35.5866 16.5525H33.5779V15.7033H35.5785C35.7768 15.7033 35.9157 15.6797 35.9993 15.6052C36.0784 15.5389 36.1231 15.4451 36.1223 15.3471C36.1223 15.2317 36.0719 15.14 35.9951 15.0852C35.9198 15.0248 35.8098 14.9973 35.6286 14.9973C34.652 14.9671 33.4336 15.0247 33.4336 13.7717C33.4336 13.1974 33.8345 12.5928 34.926 12.5928H36.9979V11.805H35.0729C34.492 11.805 34.0699 11.9315 33.7711 12.1284V11.805H30.9238C30.4686 11.805 29.9342 11.9076 29.6814 12.1284V11.805H24.5967V12.1284C24.1921 11.8628 23.5092 11.805 23.1942 11.805H19.8403V12.1284C19.5202 11.8464 18.8082 11.805 18.3744 11.805H14.6209L13.7621 12.6506L12.9576 11.805H7.35054V17.3306H12.8518L13.7367 16.4714L14.5704 17.3306L17.9614 17.3333V16.0335H18.2949C18.7448 16.0401 19.2754 16.0234 19.7437 15.8393V17.3305H22.5407V15.8902H22.6756C22.8477 15.8902 22.8648 15.8968 22.8648 16.0533V17.3301H31.3617C31.9011 17.3301 32.4651 17.2047 32.7773 16.9764V17.3301H35.4725C36.0333 17.3301 36.581 17.2586 36.9978 17.0755V16.0462C36.7452 16.3823 36.2528 16.5525 35.5866 16.5525ZM18.3394 15.2477H17.0416V16.5759H15.0199L13.7391 15.2651L12.4081 16.5759H8.28804V12.6162H12.4715L13.7512 13.9142L15.0742 12.6162H18.3978C19.2232 12.6162 20.1507 12.8241 20.1507 13.9207C20.1507 15.0207 19.2486 15.2477 18.3394 15.2477ZM24.5803 15.0682C24.7272 15.2615 24.7484 15.4419 24.7526 15.791V16.576H23.7083V16.0806C23.7083 15.8424 23.7336 15.4896 23.5402 15.3055C23.3884 15.1637 23.1566 15.1298 22.777 15.1298H21.6654V16.576H20.6204V12.6162H23.0216C23.5484 12.6162 23.9318 12.6375 24.2732 12.803C24.6015 12.9835 24.808 13.2307 24.808 13.6824C24.808 14.3144 24.3446 14.6368 24.0708 14.7358C24.3022 14.8135 24.4914 14.9529 24.5803 15.0682ZM28.8769 13.4351H26.4412V14.155H28.8173V14.9629H26.4412V15.7508L28.8769 15.7543V16.5759H25.4053V12.6162H28.8769V13.4351ZM31.5496 16.5759H29.5238V15.7268H31.5416C31.7389 15.7268 31.8788 15.703 31.9665 15.6287C32.038 15.5674 32.0894 15.4784 32.0894 15.3706C32.0894 15.2551 32.0337 15.1635 31.9624 15.1085C31.8828 15.0482 31.773 15.0208 31.592 15.0208C30.6193 14.9905 29.4011 15.0481 29.4011 13.7951C29.4011 13.2208 29.7978 12.6162 30.8882 12.6162H32.9736V13.4589H31.0654C30.8763 13.4589 30.7533 13.4655 30.6488 13.5306C30.5347 13.5947 30.4925 13.6898 30.4925 13.8153C30.4925 13.9647 30.5892 14.0664 30.72 14.1103C30.8298 14.145 30.9476 14.1552 31.1248 14.1552L31.6848 14.1691C32.2492 14.1814 32.637 14.2704 32.8726 14.4874C33.075 14.6781 33.1837 14.9189 33.1837 15.3263C33.1837 16.1782 32.5986 16.5759 31.5496 16.5759ZM23.4825 13.499C23.3569 13.431 23.1714 13.4274 22.9863 13.4274H21.7054V14.3167H22.9692C23.1715 14.3167 23.3435 14.3102 23.4825 14.2351C23.6173 14.161 23.698 14.0244 23.698 13.8551C23.698 13.6857 23.6173 13.5631 23.4825 13.499ZM35.1041 13.4274C34.9149 13.4274 34.7891 13.4339 34.6832 13.4989C34.5734 13.5631 34.5313 13.6582 34.5313 13.7838C34.5313 13.9331 34.6239 14.0348 34.7587 14.0788C34.8685 14.1135 34.9862 14.1236 35.1594 14.1236L35.7233 14.1373C36.2921 14.1501 36.672 14.2392 36.9035 14.4562C36.9457 14.4863 36.971 14.5201 37 14.5541V13.4274L35.1041 13.4274ZM18.3755 13.4274H17.0192V14.4359H18.3634C18.763 14.4359 19.0115 14.2554 19.0117 13.9129C19.0115 13.5666 18.751 13.4274 18.3755 13.4274ZM9.32401 13.4274V14.1473H11.6074V14.9552H9.32401V15.743H11.8813L13.0694 14.5814L11.9318 13.4274H9.32401ZM16.0017 16.1964V13.0218L14.4048 14.5836L16.0017 16.1964ZM9.4113 9.83887V10.5212H18.1013L18.0972 9.07777H18.2654C18.3832 9.0815 18.4174 9.09137 18.4174 9.26824V10.5212H22.912V10.1851C23.2745 10.3619 23.8383 10.5212 24.5803 10.5212H26.4711L26.8758 9.64191H27.7729L28.1687 10.5212H31.8123V9.68596L32.364 10.5212H35.284V5H32.3943V5.65206L31.9897 5H29.0246V5.65206L28.653 5H24.6477C23.9772 5 23.388 5.08513 22.9119 5.32241V5H20.1479V5.32241C19.8449 5.07783 19.4321 5 18.9733 5H8.87535L8.19786 6.4261L7.50206 5H4.32155V5.65206L3.97208 5H1.25964L4.74369e-05 7.62518V9.72505L1.86261 5.7662H3.40806L5.17698 9.5144V5.7662H6.8747L8.23591 8.45178L9.48644 5.7662H11.2182V9.72505H10.1521L10.1482 6.62455L8.63988 9.72505H7.72662L6.21447 6.6218V9.72505H4.09879L3.69913 8.84202H1.53345L1.12966 9.72505H4.74369e-05L0 10.5215H1.77727L2.17797 9.64213H3.07519L3.47485 10.5215H6.97157V9.84914L7.28366 10.5243H9.09888L9.4113 9.83887ZM23.1049 6.22764C23.441 5.91168 23.9677 5.76597 24.6845 5.76597H25.6914V6.61423H24.7056C24.3262 6.61423 24.1116 6.66558 23.9053 6.84881C23.7279 7.01546 23.6062 7.33057 23.6062 7.74549C23.6062 8.16964 23.699 8.47543 23.8922 8.67519C24.0523 8.83184 24.3434 8.87936 24.6172 8.87936H25.0845L26.5504 5.76611H28.1088L29.8698 9.51057V5.76615H31.4536L33.2819 8.52326V5.76615H34.3474V9.72487H32.8734L30.9018 6.75359V9.72487H28.7835L28.3788 8.84184H26.218L25.8253 9.72487H24.6081C24.1026 9.72487 23.4624 9.62317 23.0999 9.28698C22.7343 8.95088 22.5443 8.49556 22.5443 7.77571C22.5441 7.18851 22.6576 6.6518 23.1049 6.22764ZM20.9655 5.76602H22.0267V9.72487H20.9655V5.76602ZM16.1805 5.76602H18.5728C19.1043 5.76602 19.4962 5.77885 19.8324 5.95564C20.1615 6.13247 20.3587 6.39065 20.3587 6.83214C20.3587 7.4634 19.8956 7.78945 19.6259 7.88741C19.8534 7.96624 20.0479 8.10546 20.1406 8.22077C20.2874 8.41769 20.3127 8.59357 20.3127 8.9471V9.72483H19.2637L19.2597 9.22559C19.2597 8.98732 19.2848 8.64474 19.0955 8.45439C18.9436 8.31522 18.7119 8.2849 18.3374 8.2849H17.2208V9.72487H16.1806L16.1805 5.76602ZM11.9874 5.76602H15.4621V6.59041H13.0277V7.304H15.4037V8.1155H13.0277V8.90611H15.4621V9.72483H11.9874V5.76602Z" fill="#FEFEFE"/>
</svg>
