<svg width="37" height="23" viewBox="0 0 37 23" fill="none" xmlns="http://www.w3.org/2000/svg">
<rect width="37" height="23" rx="4" fill="#F6F6F6"/>
<path d="M11.7386 11.264V12.552H12.7466V13.798C12.7466 14.302 12.6626 14.652 12.5086 14.876C12.3406 15.1 12.0746 15.212 11.7106 15.212C11.2906 15.212 10.9966 15.086 10.8146 14.834C10.6326 14.582 10.5486 14.204 10.5486 13.686V9.304C10.5486 8.772 10.6326 8.394 10.8006 8.142C10.9686 7.89 11.2626 7.764 11.6546 7.764C11.9626 7.764 12.2006 7.862 12.3826 8.058C12.5506 8.254 12.6486 8.576 12.6766 9.052V9.248H14.3706V9.066C14.3706 8.562 14.3006 8.142 14.1606 7.806C14.0206 7.47 13.8246 7.19 13.5866 6.966C13.3486 6.756 13.0686 6.602 12.7326 6.504C12.3966 6.42 12.0466 6.364 11.6546 6.364C10.7726 6.364 10.0726 6.616 9.5406 7.106C9.0086 7.61 8.7566 8.352 8.7566 9.346V13.658C8.7566 14.652 9.0086 15.394 9.5406 15.898C10.0586 16.402 10.7726 16.64 11.6966 16.64C12.5786 16.64 13.2646 16.416 13.7406 15.968C14.2166 15.52 14.4546 14.806 14.4546 13.826V11.264H11.7386ZM15.5551 6.49V16.5H17.3191V6.49H15.5551ZM18.548 6.49V16.5H20.298L20.312 12.286H22.384V10.928H20.312V7.876H22.86V6.49H18.548ZM25.0726 7.876V16.5H26.8226L26.8366 7.876H28.4886V6.49H23.4206V7.876H25.0726Z" fill="#949494"/>
</svg>
