<svg width="20" height="21" viewBox="0 0 20 21" fill="none" xmlns="http://www.w3.org/2000/svg">
<path d="M10 0C7.28417 0 6.94362 0.0119481 5.877 0.0623956C4.81262 0.11275 4.08569 0.288082 3.4496 0.544394C2.79201 0.809413 2.23434 1.16403 1.67842 1.74053C1.12247 2.31703 0.780514 2.89542 0.524987 3.57736C0.277766 4.23697 0.108755 4.99081 0.060138 6.0946C0.0114917 7.20071 0 7.55388 0 10.3703C0 13.1866 0.0114917 13.5398 0.060138 14.6459C0.108755 15.7497 0.277766 16.5035 0.524987 17.1632C0.780544 17.8451 1.1225 18.4234 1.67842 19C2.23437 19.5765 2.79201 19.9311 3.4496 20.1961C4.08569 20.4524 4.81262 20.6277 5.877 20.6781C6.94362 20.7286 7.28417 20.7405 10 20.7405C12.7158 20.7405 13.0564 20.7286 14.123 20.6781C15.1874 20.6278 15.9143 20.4524 16.5504 20.1961C17.208 19.9311 17.7656 19.5765 18.3216 19C18.8775 18.4234 19.2195 17.8451 19.475 17.1632C19.7222 16.5035 19.8913 15.7497 19.9398 14.6459C19.9885 13.5398 20 13.1866 20 10.3703C20 7.55388 19.9885 7.20071 19.9398 6.0946C19.8913 4.99081 19.7222 4.23697 19.475 3.57736C19.2195 2.89542 18.8775 2.31703 18.3216 1.74053C17.7656 1.16403 17.208 0.809413 16.5504 0.544394C15.9143 0.288082 15.1874 0.11275 14.123 0.0623956C13.0564 0.0119481 12.7158 0 10 0ZM10 1.8685C12.6701 1.8685 12.9864 1.87909 14.0409 1.92898C15.0159 1.97508 15.5454 2.14402 15.8977 2.28604C16.3645 2.47418 16.6976 2.69888 17.0475 3.06177C17.3975 3.42466 17.6142 3.77013 17.7956 4.25417C17.9325 4.61959 18.0954 5.16871 18.1399 6.17979C18.188 7.2733 18.1982 7.6013 18.1982 10.3703C18.1982 13.1392 18.188 13.4672 18.1399 14.5607C18.0954 15.5718 17.9325 16.1209 17.7956 16.4863C17.6142 16.9704 17.3975 17.3159 17.0475 17.6787C16.6976 18.0416 16.3645 18.2663 15.8977 18.4545C15.5454 18.5965 15.0158 18.7654 14.0409 18.8115C12.9866 18.8614 12.6703 18.872 10 18.872C7.32969 18.872 7.01349 18.8614 5.95914 18.8115C4.98413 18.7654 4.45465 18.5965 4.10231 18.4545C3.63549 18.2663 3.30238 18.0416 2.95248 17.6787C2.60255 17.3159 2.38584 16.9704 2.20442 16.4864C2.06747 16.1209 1.90459 15.5718 1.86011 14.5607C1.812 13.4672 1.80179 13.1392 1.80179 10.3703C1.80179 7.6013 1.812 7.2733 1.86011 6.17979C1.90459 5.16867 2.06747 4.61959 2.20442 4.2542C2.38584 3.7701 2.60255 3.42466 2.95245 3.0618C3.30238 2.69888 3.63552 2.47418 4.10228 2.28604C4.45465 2.14402 4.98416 1.97508 5.95914 1.92898C7.01361 1.87909 7.3299 1.8685 10 1.8685" fill="white"/>
<path d="M10.0004 13.8267C8.1594 13.8267 6.66702 12.2791 6.66702 10.37C6.66702 8.46083 8.1594 6.9132 10.0004 6.9132C11.8413 6.9132 13.3337 8.46083 13.3337 10.37C13.3337 12.2791 11.8413 13.8267 10.0004 13.8267ZM10.0004 5.0447C7.16429 5.0447 4.86523 7.42888 4.86523 10.37C4.86523 13.311 7.16429 15.6952 10.0004 15.6952C12.8364 15.6952 15.1355 13.311 15.1355 10.37C15.1355 7.42888 12.8364 5.0447 10.0004 5.0447ZM16.5384 4.8343C16.5384 5.52161 16.0011 6.07872 15.3384 6.07872C14.6757 6.07872 14.1384 5.52161 14.1384 4.8343C14.1384 4.14702 14.6757 3.58984 15.3384 3.58984C16.0011 3.58984 16.5384 4.14702 16.5384 4.8343Z" fill="white"/>
</svg>
