<svg width="37" height="23" viewBox="0 0 37 23" fill="none" xmlns="http://www.w3.org/2000/svg">
<rect width="37" height="23" rx="4" fill="#F6F6F6"/>
<path d="M11.8205 19.2031V18.1215C11.8268 18.0306 11.8136 17.9393 11.7819 17.8538C11.7502 17.7684 11.7006 17.6906 11.6365 17.6258C11.5723 17.561 11.4951 17.5106 11.41 17.4779C11.3248 17.4453 11.2337 17.4312 11.1427 17.4365C11.0236 17.4287 10.9045 17.453 10.798 17.5069C10.6914 17.5608 10.6013 17.6424 10.537 17.743C10.4784 17.6454 10.3946 17.5654 10.2943 17.5115C10.1941 17.4575 10.0811 17.4316 9.96737 17.4365C9.86823 17.4315 9.7695 17.4525 9.68096 17.4974C9.59243 17.5423 9.51716 17.6096 9.46263 17.6925V17.4798H9.08768V19.2031H9.46623V18.2549C9.45818 18.196 9.46325 18.136 9.48107 18.0793C9.49889 18.0225 9.52903 17.9704 9.56933 17.9267C9.60963 17.8829 9.6591 17.8486 9.7142 17.8262C9.76929 17.8038 9.82866 17.7939 9.88805 17.7971C10.1368 17.7971 10.263 17.9593 10.263 18.2513V19.2103H10.6416V18.2549C10.6338 18.1961 10.6391 18.1362 10.6571 18.0796C10.675 18.023 10.7052 17.971 10.7454 17.9274C10.7856 17.8837 10.835 17.8494 10.8899 17.8269C10.9449 17.8044 11.0041 17.7942 11.0634 17.7971C11.3194 17.7971 11.4419 17.9593 11.4419 18.2513V19.2103L11.8205 19.2031ZM17.4213 17.4798H16.8048V16.957H16.4263V17.4798H16.0838V17.8223H16.4335V18.6155C16.4335 19.0157 16.5885 19.2536 17.032 19.2536C17.1976 19.2542 17.3601 19.2079 17.5006 19.1202L17.3925 18.7993C17.2919 18.8593 17.1778 18.8928 17.0608 18.8967C16.8805 18.8967 16.812 18.7813 16.812 18.6083V17.8223H17.4249L17.4213 17.4798ZM20.6192 17.4365C20.5278 17.4338 20.4374 17.4559 20.3574 17.5003C20.2775 17.5447 20.211 17.6099 20.165 17.6889V17.4798H19.7936V19.2031H20.1686V18.2369C20.1686 17.9521 20.2911 17.7935 20.5291 17.7935C20.6093 17.7924 20.6889 17.8071 20.7634 17.8367L20.8788 17.4762C20.7932 17.4456 20.703 17.4297 20.612 17.4293L20.6192 17.4365ZM15.7845 17.6168C15.5723 17.4906 15.3283 17.428 15.0815 17.4365C14.6452 17.4365 14.3604 17.6456 14.3604 17.9881C14.3604 18.2694 14.5695 18.4424 14.9553 18.4965L15.1356 18.5217C15.3411 18.5506 15.4384 18.6047 15.4384 18.702C15.4384 18.8354 15.3014 18.9111 15.0454 18.9111C14.8395 18.9171 14.6376 18.8536 14.4722 18.7308L14.2919 19.0229C14.5103 19.1754 14.7719 19.2537 15.0382 19.2464C15.5358 19.2464 15.8242 19.012 15.8242 18.684C15.8242 18.3559 15.597 18.2225 15.2221 18.1684L15.0418 18.1432C14.8796 18.1215 14.7498 18.0891 14.7498 17.9737C14.7498 17.8584 14.8724 17.7718 15.0779 17.7718C15.2678 17.774 15.454 17.8249 15.6187 17.9196L15.7845 17.6168ZM25.8271 17.4365C25.7357 17.4338 25.6452 17.4559 25.5653 17.5003C25.4853 17.5447 25.4188 17.6099 25.3728 17.6889V17.4798H25.0015V19.2031H25.3764V18.2369C25.3764 17.9521 25.499 17.7935 25.737 17.7935C25.8172 17.7924 25.8968 17.8071 25.9713 17.8367L26.0867 17.4762C26.001 17.4456 25.9108 17.4297 25.8199 17.4293L25.8271 17.4365ZM20.996 18.3379C20.9915 18.459 21.0124 18.5797 21.0573 18.6922C21.1021 18.8048 21.17 18.9068 21.2565 18.9916C21.3431 19.0765 21.4464 19.1423 21.5598 19.1849C21.6732 19.2276 21.7943 19.246 21.9153 19.2392C22.1405 19.2506 22.3617 19.1773 22.5354 19.0337L22.3552 18.7308C22.2256 18.8297 22.0675 18.884 21.9045 18.8859C21.7659 18.8746 21.6366 18.8117 21.5424 18.7095C21.4481 18.6073 21.3957 18.4733 21.3957 18.3343C21.3957 18.1952 21.4481 18.0613 21.5424 17.959C21.6366 17.8568 21.7659 17.7939 21.9045 17.7826C22.0675 17.7845 22.2256 17.8388 22.3552 17.9377L22.5354 17.6348C22.3617 17.4912 22.1405 17.4179 21.9153 17.4293C21.7943 17.4225 21.6732 17.4409 21.5598 17.4836C21.4464 17.5262 21.3431 17.592 21.2565 17.6769C21.17 17.7617 21.1021 17.8637 21.0573 17.9763C21.0124 18.0888 20.9915 18.2095 20.996 18.3306V18.3379ZM24.5075 18.3379V17.4798H24.1326V17.6889C24.0689 17.607 23.9867 17.5414 23.8926 17.4975C23.7986 17.4536 23.6955 17.4327 23.5918 17.4365C23.3528 17.4365 23.1235 17.5315 22.9545 17.7005C22.7854 17.8696 22.6905 18.0988 22.6905 18.3379C22.6905 18.5769 22.7854 18.8062 22.9545 18.9752C23.1235 19.1442 23.3528 19.2392 23.5918 19.2392C23.6955 19.243 23.7986 19.2221 23.8926 19.1782C23.9867 19.1344 24.0689 19.0687 24.1326 18.9868V19.1959H24.5075V18.3379ZM23.1123 18.3379C23.1183 18.2364 23.1538 18.1389 23.2145 18.0574C23.2751 17.9759 23.3583 17.9139 23.4538 17.8791C23.5493 17.8443 23.6528 17.8381 23.7517 17.8614C23.8506 17.8847 23.9406 17.9364 24.0105 18.0101C24.0804 18.0839 24.1272 18.1765 24.1451 18.2765C24.1631 18.3765 24.1514 18.4796 24.1115 18.5731C24.0716 18.6665 24.0052 18.7463 23.9206 18.8025C23.8359 18.8587 23.7367 18.8889 23.6351 18.8895C23.5637 18.8904 23.4929 18.8765 23.4271 18.8487C23.3614 18.8209 23.3021 18.7798 23.253 18.728C23.2039 18.6762 23.1661 18.6148 23.1418 18.5477C23.1176 18.4805 23.1076 18.4091 23.1123 18.3379V18.3379ZM18.5876 17.4365C18.3486 17.4399 18.1207 17.538 17.954 17.7094C17.7873 17.8808 17.6956 18.1114 17.6989 18.3505C17.7023 18.5895 17.8005 18.8174 17.9719 18.9841C18.1432 19.1508 18.3738 19.2425 18.6129 19.2392C18.8722 19.2525 19.1273 19.169 19.3285 19.0048L19.1483 18.7272C19.0059 18.8414 18.8296 18.9048 18.6471 18.9075C18.5232 18.9182 18.4 18.88 18.3037 18.8013C18.2074 18.7225 18.1457 18.6093 18.1316 18.4857H19.4115C19.4115 18.4388 19.4115 18.3919 19.4115 18.3415C19.4115 17.8007 19.0762 17.4401 18.5931 17.4401L18.5876 17.4365ZM18.5876 17.7718C18.6438 17.7706 18.6995 17.7805 18.7518 17.8009C18.8041 17.8212 18.8519 17.8517 18.8924 17.8906C18.9329 17.9294 18.9654 17.9758 18.9879 18.0272C19.0105 18.0786 19.0227 18.1339 19.0239 18.19H18.1226C18.1291 18.0743 18.1807 17.9658 18.2662 17.8876C18.3518 17.8094 18.4646 17.7679 18.5804 17.7718H18.5876ZM27.9813 18.3415V16.7876H27.6207V17.6889C27.557 17.607 27.4748 17.5414 27.3808 17.4975C27.2867 17.4536 27.1836 17.4327 27.0799 17.4365C26.8409 17.4365 26.6116 17.5315 26.4426 17.7005C26.2736 17.8696 26.1786 18.0988 26.1786 18.3379C26.1786 18.5769 26.2736 18.8062 26.4426 18.9752C26.6116 19.1442 26.8409 19.2392 27.0799 19.2392C27.1836 19.243 27.2867 19.2221 27.3808 19.1782C27.4748 19.1344 27.557 19.0687 27.6207 18.9868V19.1959H27.9813V18.3415ZM28.6068 18.9526C28.6302 18.9523 28.6535 18.9566 28.6753 18.9652C28.696 18.9736 28.7149 18.9859 28.7312 19.0012C28.747 19.0168 28.7598 19.0351 28.769 19.0553C28.7781 19.0764 28.7829 19.0991 28.7829 19.122C28.7829 19.145 28.7781 19.1677 28.769 19.1887C28.7598 19.2089 28.747 19.2272 28.7312 19.2428C28.7149 19.2582 28.696 19.2704 28.6753 19.2788C28.6537 19.2884 28.6304 19.2933 28.6068 19.2933C28.5726 19.293 28.5392 19.283 28.5105 19.2645C28.4818 19.246 28.4589 19.2197 28.4445 19.1887C28.4355 19.1676 28.4309 19.1449 28.4309 19.122C28.4309 19.0991 28.4355 19.0764 28.4445 19.0553C28.4537 19.0351 28.4665 19.0168 28.4824 19.0012C28.4986 18.9859 28.5176 18.9736 28.5383 18.9652C28.5617 18.9558 28.5869 18.9515 28.6122 18.9526H28.6068ZM28.6068 19.2572C28.6248 19.2573 28.6426 19.2536 28.659 19.2464C28.6746 19.2395 28.6886 19.2297 28.7005 19.2176C28.7231 19.1929 28.7356 19.1608 28.7356 19.1274C28.7356 19.094 28.7231 19.0619 28.7005 19.0373C28.6887 19.0251 28.6746 19.0153 28.659 19.0084C28.6426 19.0013 28.6248 18.9976 28.6068 18.9976C28.5888 18.9977 28.571 19.0014 28.5545 19.0084C28.5383 19.0151 28.5236 19.0249 28.5112 19.0373C28.4887 19.0619 28.4762 19.094 28.4762 19.1274C28.4762 19.1608 28.4887 19.1929 28.5112 19.2176C28.5236 19.2299 28.5383 19.2397 28.5545 19.2464C28.5727 19.2542 28.5924 19.2579 28.6122 19.2572H28.6068ZM28.6176 19.0427C28.6344 19.0419 28.651 19.047 28.6645 19.0571C28.67 19.0617 28.6743 19.0675 28.6771 19.0741C28.68 19.0807 28.6812 19.0878 28.6807 19.095C28.6809 19.101 28.68 19.1069 28.6778 19.1125C28.6756 19.1181 28.6723 19.1232 28.6681 19.1274C28.6576 19.1369 28.6443 19.1426 28.6302 19.1436L28.6825 19.2031H28.641L28.5924 19.1436H28.5761V19.2031H28.5419V19.0445L28.6176 19.0427ZM28.5779 19.0733V19.1166H28.6176C28.6246 19.1187 28.6322 19.1187 28.6392 19.1166C28.6405 19.1141 28.6411 19.1113 28.6411 19.1085C28.6411 19.1057 28.6405 19.1029 28.6392 19.1004C28.6405 19.0979 28.6411 19.0951 28.6411 19.0923C28.6411 19.0894 28.6405 19.0867 28.6392 19.0842C28.6322 19.0821 28.6246 19.0821 28.6176 19.0842L28.5779 19.0733ZM26.595 18.3415C26.601 18.24 26.6365 18.1425 26.6972 18.061C26.7579 17.9795 26.8411 17.9175 26.9365 17.8827C27.032 17.8479 27.1355 17.8417 27.2345 17.865C27.3334 17.8883 27.4233 17.94 27.4932 18.0138C27.5631 18.0875 27.6099 18.1801 27.6279 18.2801C27.6458 18.3801 27.6341 18.4832 27.5942 18.5767C27.5543 18.6701 27.4879 18.7499 27.4033 18.8061C27.3186 18.8623 27.2194 18.8925 27.1178 18.8931C27.0464 18.894 26.9756 18.8801 26.9099 18.8523C26.8441 18.8245 26.7848 18.7834 26.7357 18.7316C26.6866 18.6798 26.6488 18.6184 26.6246 18.5513C26.6003 18.4841 26.5903 18.4127 26.595 18.3415V18.3415ZM13.935 18.3415V17.4798H13.5601V17.6889C13.4964 17.607 13.4141 17.5414 13.3201 17.4975C13.2261 17.4536 13.123 17.4327 13.0193 17.4365C12.7802 17.4365 12.551 17.5315 12.3819 17.7005C12.2129 17.8696 12.1179 18.0988 12.1179 18.3379C12.1179 18.5769 12.2129 18.8062 12.3819 18.9752C12.551 19.1442 12.7802 19.2392 13.0193 19.2392C13.123 19.243 13.2261 19.2221 13.3201 19.1782C13.4141 19.1344 13.4964 19.0687 13.5601 18.9868V19.1959H13.935V18.3415ZM12.5398 18.3415C12.5457 18.24 12.5812 18.1425 12.6419 18.061C12.7026 17.9795 12.7858 17.9175 12.8813 17.8827C12.9767 17.8479 13.0803 17.8417 13.1792 17.865C13.2781 17.8883 13.368 17.94 13.4379 18.0138C13.5078 18.0875 13.5546 18.1801 13.5726 18.2801C13.5905 18.3801 13.5788 18.4832 13.5389 18.5767C13.499 18.6701 13.4327 18.7499 13.348 18.8061C13.2634 18.8623 13.1641 18.8925 13.0625 18.8931C12.9908 18.8945 12.9197 18.881 12.8535 18.8534C12.7873 18.8259 12.7276 18.7848 12.6781 18.733C12.6286 18.6811 12.5904 18.6195 12.566 18.5521C12.5415 18.4847 12.5314 18.413 12.5361 18.3415H12.5398Z" fill="#231F20"/>
<path d="M21.3387 4.3477H15.6603V14.5525H21.3387V4.3477Z" fill="#FF5F00"/>
<path d="M16.0208 9.45075C16.0198 8.46782 16.2424 7.49753 16.6718 6.61336C17.1013 5.7292 17.7263 4.95433 18.4995 4.34745C17.5421 3.59506 16.3924 3.1272 15.1817 2.99733C13.971 2.86746 12.7482 3.08082 11.653 3.61304C10.5579 4.14525 9.63454 4.97484 8.98855 6.00699C8.34257 7.03915 8 8.23222 8 9.44985C8 10.6675 8.34257 11.8606 8.98855 12.8927C9.63454 13.9249 10.5579 14.7545 11.653 15.2867C12.7482 15.8189 13.971 16.0322 15.1817 15.9024C16.3924 15.7725 17.5421 15.3046 18.4995 14.5523C17.7265 13.9456 17.1017 13.171 16.6722 12.2872C16.2428 11.4033 16.0201 10.4334 16.0208 9.45075V9.45075Z" fill="#EB001B"/>
<path d="M29 9.45104C29 10.6688 28.6574 11.8619 28.0113 12.8941C27.3652 13.9263 26.4417 14.7559 25.3464 15.288C24.2511 15.8201 23.0282 16.0334 21.8174 15.9033C20.6066 15.7733 19.4569 15.3052 18.4996 14.5525C19.2723 13.9453 19.8969 13.1705 20.3265 12.2866C20.756 11.4028 20.9792 10.4329 20.9792 9.45014C20.9792 8.46741 20.756 7.49752 20.3265 6.61364C19.8969 5.72976 19.2723 4.95497 18.4996 4.34774C19.4569 3.59511 20.6066 3.12702 21.8174 2.99697C23.0282 2.86691 24.2511 3.08014 25.3464 3.61227C26.4417 4.14441 27.3652 4.97399 28.0113 6.00618C28.6574 7.03836 29 8.23151 29 9.44924V9.45104Z" fill="#F79E1B"/>
<path d="M28.3799 13.4708V13.2616H28.4646V13.2184H28.2501V13.2616H28.3421V13.4708H28.3799ZM28.7963 13.4708V13.2184H28.7314L28.6557 13.3986L28.58 13.2184H28.5223V13.4708H28.5692V13.2815L28.6395 13.4455H28.6882L28.7585 13.2815V13.4726L28.7963 13.4708Z" fill="#F79E1B"/>
</svg>
