<svg width="37" height="23" viewBox="0 0 37 23" fill="none" xmlns="http://www.w3.org/2000/svg">
<rect width="37" height="23" rx="4" fill="#F6F6F6"/>
<path d="M20.3025 19.6371C24.8496 19.6588 29 15.9287 29 11.3908C29 6.42846 24.8496 2.99839 20.3025 3H16.3892C11.7876 2.99839 8 6.42947 8 11.3908C8 15.9297 11.7876 19.6589 16.3892 19.6371H20.3025Z" fill="#0079BE"/>
<path fill-rule="evenodd" clip-rule="evenodd" d="M16.4076 3.68776C12.2028 3.6891 8.79546 7.09738 8.79448 11.3039C8.79546 15.5097 12.2027 18.9176 16.4076 18.9189C20.6134 18.9176 24.0214 15.5097 24.022 11.3039C24.0213 7.09738 20.6134 3.6891 16.4076 3.68776ZM11.5818 11.3039C11.5858 9.24832 12.8696 7.49547 14.6798 6.79898V15.8077C12.8696 15.1116 11.5858 13.3597 11.5818 11.3039ZM18.1347 6.79865V15.8097C19.9456 15.1135 21.2313 13.361 21.2347 11.3039C21.2313 9.24731 19.9456 7.49353 18.1347 6.79865Z" fill="white"/>
</svg>
