<svg width="37" height="23" viewBox="0 0 37 23" fill="none" xmlns="http://www.w3.org/2000/svg">
<rect width="37" height="23" rx="4" fill="#F6F6F6"/>
<g clip-path="url(#clip0_1_394)">
<path d="M18.548 20.923C23.7523 20.923 27.9712 16.7042 27.9712 11.5001C27.9712 6.29599 23.7523 2.07723 18.548 2.07723C13.3436 2.07723 9.12469 6.29599 9.12469 11.5001C9.12469 16.7042 13.3436 20.923 18.548 20.923Z" fill="url(#paint0_radial_1_394)"/>
<path d="M21.0897 9.18191H18.859C18.849 9.18191 18.839 9.18049 18.8291 9.18252C18.4742 9.25949 17.8053 9.62234 17.8087 10.4148C17.7903 10.7197 17.9238 11.205 18.5614 11.4073C18.5633 11.4073 20.1515 11.4073 20.1515 11.4073C20.2219 11.4073 20.6562 11.5066 20.6274 12.2641C20.5982 13.0277 19.9472 13.1269 19.8535 13.2281H17.3896C17.3119 13.2281 17.2489 13.3021 17.2489 13.3798C17.2489 13.4575 17.3119 13.5316 17.3896 13.5316H19.8671C19.8751 13.5316 19.883 13.4945 19.8909 13.4931C20.2291 13.4353 20.877 13.0883 20.9087 12.2583C20.9495 11.185 20.173 11.1172 20.1651 11.1167C20.1662 11.1164 18.5956 11.1121 18.5956 11.1121C18.0594 11.014 18.0883 10.4447 18.0899 10.4199C18.0901 10.4165 18.0902 10.4254 18.0902 10.422C18.0844 9.70306 18.7676 9.48537 18.8756 9.48537H21.0898C21.1675 9.48537 21.2306 9.41133 21.2306 9.33364C21.2305 9.25595 21.1674 9.18191 21.0897 9.18191Z" fill="white"/>
<path d="M24.4862 9.16607C24.4734 9.16243 24.46 9.18195 24.4467 9.18195H22.7798C22.0253 9.18195 21.6845 10.0556 21.6705 10.0938C21.6682 10.0999 21.6664 10.0954 21.6649 10.1019C21.6476 10.18 21.2414 12.0174 21.255 12.624C21.2681 13.1948 21.8493 13.4022 22.1548 13.4349C22.1599 13.4355 22.1649 13.4306 22.1701 13.4306H24.4873C24.566 13.4306 24.63 13.3575 24.63 13.2788C24.63 13.2001 24.5661 13.1271 24.4873 13.1271H22.1788C22.1063 13.1271 21.5504 13.0423 21.5404 12.6006C21.535 12.3635 21.6025 11.9097 21.6838 11.4513L24.9087 11.4272C24.9775 11.4267 25.0362 11.3784 25.048 11.3106C25.0543 11.2751 25.1992 10.4504 25.1992 9.95589C25.1991 9.36747 24.5154 9.17457 24.4862 9.16607ZM24.7863 11.1458L21.7361 11.1713C21.8298 10.6743 21.9251 10.2669 21.9412 10.1938C21.9737 10.1124 22.2535 9.48532 22.7798 9.48532H24.4241C24.5131 9.48532 24.9139 9.64271 24.9139 9.97622C24.9139 10.3409 24.8263 10.8973 24.7863 11.1458Z" fill="white"/>
<path d="M17.3844 10.0362C17.4681 9.46705 16.7492 9.1821 16.6146 9.1821C16.6144 9.1821 16.6142 9.1821 16.6142 9.1821C16.0337 9.1821 15.1543 9.20203 15.0625 9.19889C15.0503 9.19758 15.0376 9.20567 15.0249 9.20759C14.6654 9.26484 14.1772 9.72783 14.0204 10.1561L14.0229 10.1591C14.0072 10.2068 13.9934 10.2804 13.9725 10.3911C13.9471 10.5249 13.9116 10.7166 13.8692 10.9459C13.7846 11.4042 13.6731 12.0154 13.5618 12.6264C13.3393 13.8483 13.1183 15.0701 13.1183 15.0701C13.1047 15.1455 13.1547 15.2177 13.2301 15.2314C13.2384 15.2329 13.2467 15.2337 13.2549 15.2337C13.3206 15.2337 13.3791 15.1867 13.3911 15.1196C13.4846 14.6031 13.6379 13.7572 13.7914 12.9139C14.1534 13.3706 14.6038 13.4186 14.6263 13.4207C14.6319 13.4213 14.6375 13.4217 14.6432 13.4212L16.0686 13.3804C16.0809 13.3801 16.0928 13.3782 16.1044 13.3747C16.7806 13.1718 16.984 12.4741 16.9924 12.4444C16.9937 12.4395 16.9949 12.4344 16.9957 12.4293L17.3826 10.0593C17.3836 10.0543 17.3837 10.0413 17.3844 10.0362ZM17.1077 10.0309L16.7236 12.3752C16.7036 12.4381 16.5269 12.9477 16.0419 13.1037L14.646 13.1435C14.5816 13.1345 14.1461 13.0544 13.8638 12.5169C14.0694 11.3887 14.2581 10.3604 14.2825 10.2513C14.4119 9.90374 14.8304 9.53027 15.0652 9.49011C15.1184 9.49335 15.1911 9.49345 15.2917 9.49366C15.4387 9.49386 15.6351 9.49376 15.8312 9.49335C16.1562 9.49285 16.481 9.49173 16.5827 9.49133C16.7474 9.49011 17.1477 9.7696 17.1077 10.0309Z" fill="white"/>
<path d="M10.9634 9.10157C11.1826 9.10157 11.3602 8.91204 11.3602 8.67824C11.3602 8.44444 11.1826 8.25491 10.9634 8.25491C10.7443 8.25491 10.5666 8.44444 10.5666 8.67824C10.5666 8.91204 10.7443 9.10157 10.9634 9.10157Z" fill="#FDB718"/>
<path d="M10.5627 7.34177C10.5627 7.15575 10.4495 6.99947 10.2931 6.94272C10.161 7.18175 10.0389 7.42715 9.92755 7.67832C9.99411 7.73203 10.076 7.76511 10.1659 7.76511C10.3851 7.76511 10.5627 7.57554 10.5627 7.34177Z" fill="#FDB718"/>
<path d="M9.76137 8.67821C9.76137 8.5634 9.71818 8.45952 9.64858 8.38325C9.56705 8.61631 9.49432 8.85341 9.431 9.09437C9.61834 9.06048 9.76137 8.88771 9.76137 8.67821Z" fill="#FDB718"/>
<path d="M11.0188 14.2589C11.238 14.2589 11.4156 14.0694 11.4156 13.8356C11.4156 13.6018 11.238 13.4123 11.0188 13.4123C10.7996 13.4123 10.622 13.6018 10.622 13.8356C10.622 14.0694 10.7996 14.2589 11.0188 14.2589Z" fill="#FDB718"/>
<path d="M9.617 13.8356C9.617 13.6591 9.4941 13.5146 9.33478 13.4905C9.37989 13.6996 9.43158 13.9062 9.49035 14.11C9.56693 14.0458 9.617 13.9474 9.617 13.8356Z" fill="#FDB718"/>
<path d="M10.5609 15.216C10.5609 14.9823 10.3832 14.7927 10.164 14.7927C10.0076 14.7927 9.87363 14.8901 9.80899 15.0304C9.89113 15.2331 9.97994 15.4324 10.0755 15.6278C10.1041 15.6348 10.1335 15.6393 10.164 15.6393C10.3831 15.6394 10.5609 15.4498 10.5609 15.216Z" fill="#FDB718"/>
<path d="M11.2346 12.52H10.4388C10.3872 12.4188 10.2394 12.2447 10.063 12.2447C9.8438 12.2447 9.66618 12.4434 9.66618 12.6772C9.66618 12.9109 9.8438 13.1087 10.063 13.1087C10.2394 13.1087 10.3872 13.0257 10.4388 12.8233H11.0902H11.3145H11.3335L12.1681 11.306H13.4553V11.1037H11.3452L10.4778 9.5864H10.4174H10.1941H9.31567C9.29504 9.68694 9.27643 9.7882 9.25893 9.88986H10.3517L11.0616 11.1037H9.13097C9.12824 11.171 9.12601 11.2384 9.12469 11.306H11.9249L11.2346 12.52Z" fill="#FDB718"/>
<path d="M14.4902 7.91743H14.9157C14.9157 7.91743 15.0404 7.95415 15.0183 8.10083L14.9376 8.66568H14.4901C14.4901 8.66568 14.2921 8.59234 14.3947 8.37961C14.3947 8.37961 14.4883 8.26591 14.5708 8.26591L14.9807 8.27967" stroke="white" stroke-width="0.101155" stroke-miterlimit="10"/>
<path d="M15.7815 7.91743H15.356C15.356 7.91743 15.2093 7.99077 15.1726 8.18155C15.1726 8.18155 15.0736 8.46033 15.1909 8.66568L15.2405 8.6767H15.6402" stroke="white" stroke-width="0.101155" stroke-miterlimit="10"/>
<path d="M16.0271 7.57453L15.9653 7.91755L15.8272 8.6841" stroke="white" stroke-width="0.101155" stroke-miterlimit="10"/>
<path d="M15.9397 8.06018C15.9397 8.06018 15.9906 7.95953 16.0786 7.91735C16.0786 7.91735 16.3996 7.8862 16.4564 7.96692C16.4564 7.96692 16.5207 7.99807 16.5169 8.08982L16.4179 8.66569" stroke="white" stroke-width="0.101155" stroke-miterlimit="10"/>
</g>
<defs>
<radialGradient id="paint0_radial_1_394" cx="0" cy="0" r="1" gradientUnits="userSpaceOnUse" gradientTransform="translate(18.7165 11.4663) scale(9.42309)">
<stop offset="0.3155" stop-color="#2D5CA8"/>
<stop offset="0.5312" stop-color="#285496"/>
<stop offset="0.7289" stop-color="#1F4272"/>
<stop offset="1" stop-color="#0D2D4D"/>
</radialGradient>
<clipPath id="clip0_1_394">
<rect width="19.0424" height="19.0002" fill="white" transform="translate(9.00424 2)"/>
</clipPath>
</defs>
</svg>
