<svg width="37" height="23" viewBox="0 0 37 23" fill="none" xmlns="http://www.w3.org/2000/svg">
<rect width="37" height="23" rx="4" fill="#F6F6F6"/>
<path fill-rule="evenodd" clip-rule="evenodd" d="M18.7537 9.88319C18.7385 11.0578 19.8197 11.7132 20.6343 12.103C21.4712 12.5028 21.7522 12.7592 21.7491 13.1168C21.7427 13.664 21.0815 13.9056 20.4626 13.915C19.3829 13.9315 18.7552 13.6288 18.2561 13.3998L17.8673 15.1868C18.368 15.4134 19.2951 15.611 20.2566 15.6196C22.5133 15.6196 23.9898 14.5258 23.9978 12.8298C24.0066 10.6775 20.9657 10.5583 20.9864 9.59616C20.9936 9.3045 21.2771 8.99324 21.8984 8.914C22.2059 8.87402 23.0547 8.84344 24.017 9.27862L24.3947 7.54966C23.8772 7.36466 23.2121 7.18745 22.3839 7.18745C20.2597 7.18745 18.7656 8.29616 18.7537 9.88319ZM28.0242 7.33642C27.6121 7.33642 27.2647 7.57244 27.1098 7.93471L23.886 15.4926H26.1412L26.5899 14.2749H29.3458L29.6062 15.4926H31.5937L29.8593 7.33642H28.0242ZM28.3396 9.5397L28.9904 12.6024H27.2081L28.3396 9.5397ZM16.0194 7.33642L14.2418 15.4926H16.3907L18.1675 7.33642H16.0194ZM12.8403 7.33642L10.6035 12.8878L9.69874 8.16756C9.59253 7.64064 9.17329 7.33642 8.70773 7.33642H5.05111L5 7.5732C5.75065 7.73315 6.60352 7.99112 7.12019 8.26717C7.43642 8.43574 7.52665 8.58313 7.63047 8.98379L9.34418 15.4926H11.6153L15.097 7.33642H12.8403Z" fill="#1A1F70"/>
</svg>
